# xmcd CD database file
#
# Track frame offsets:
#	150
#	20870
#	36150
#	57477
#	74522
#	86457
#	100287
#	117820
#	139047
#	158235
#
# Disc length: 2356 seconds
#
# Revision: 0
# Processed by: cddbd v1.5PL3 Copyright (c) Steve Scherf et al.
# Submitted via: CDex 1.51
#
DISCID=8a09320a
DTITLE=Spectrum - The Music of Garth Broks
DYEAR=1993
DGENRE=Country
TTITLE0=Every Now and Then
TTITLE1=Somewhere Other Then the Night
TTITLE2=The River
TTITLE3=The Thunder Rolls
TTITLE4=Two of a Kind, Workin' on a Full House
TTITLE5=Papa Loved Mama
TTITLE6=Friends in Low Places
TTITLE7=That Summer
TTITLE8=Shameless
TTITLE9=We Shall be Free
EXTD=YEAR: 1993
EXTT0=
EXTT1=
EXTT2=
EXTT3=
EXTT4=
EXTT5=
EXTT6=
EXTT7=
EXTT8=
EXTT9=
PLAYORDER=
